<svg xmlns="http://www.w3.org/2000/svg" width="32768" height="1024" viewBox="0 0 32768 1024">
  <defs>
    <!-- Градиент для средних холмов -->
    <linearGradient id="middleHillsGradient" x1="0%" y1="0%" x2="0%" y2="100%">
      <stop offset="0%" style="stop-color:#4a7c59;stop-opacity:1" />
      <stop offset="100%" style="stop-color:#2d5a3d;stop-opacity:1" />
    </linearGradient>
    
    <!-- Градиент для деревьев на среднем плане -->
    <linearGradient id="middleTreesGradient" x1="0%" y1="0%" x2="0%" y2="100%">
      <stop offset="0%" style="stop-color:#3d6b4f;stop-opacity:1" />
      <stop offset="100%" style="stop-color:#1e3d2f;stop-opacity:1" />
    </linearGradient>
  </defs>
  
  <!-- Средние холмы -->
  <g fill="url(#middleHillsGradient)">
    <path d="M0,700 Q400,600 800,680 T1600,650 T2400,700 T3200,660 T4000,690 T4800,640 T5600,710 T6400,670 T7200,650 T8000,700 T8800,660 T9600,680 T10400,640 T11200,710 T12000,670 T12800,650 T13600,700 T14400,660 T15200,680 T16000,640 T16800,710 T17600,670 T18400,650 T19200,700 T20000,660 T20800,680 T21600,640 T22400,710 T23200,670 T24000,650 T24800,700 T25600,660 T26400,680 T27200,640 T28000,710 T28800,670 T29600,650 T30400,700 T31200,660 T32000,680 T32768,650 L32768,1024 L0,1024 Z" />
    <path d="M0,720 Q500,650 1000,700 T2000,680 T3000,720 T4000,690 T5000,730 T6000,680 T7000,710 T8000,670 T9000,720 T10000,690 T11000,730 T12000,680 T13000,710 T14000,670 T15000,720 T16000,690 T17000,730 T18000,680 T19000,710 T20000,670 T21000,720 T22000,690 T23000,730 T24000,680 T25000,710 T26000,670 T27000,720 T28000,690 T29000,730 T30000,680 T31000,710 T32000,670 T32768,700 L32768,1024 L0,1024 Z" opacity="0.8" />
  </g>
  
  <!-- Деревья и растительность на среднем плане -->
  <g fill="url(#middleTreesGradient)">
    <!-- Группа деревьев повторяется каждые ~800 пикселей для бесшовности -->
    <!-- Секция 1 -->
    <path d="M100,700 L120,650 L140,700 Z" />
    <path d="M180,710 L200,660 L220,710 Z" />
    <path d="M260,695 L280,645 L300,695 Z" />
    <path d="M350,705 L370,655 L390,705 Z" />
    <path d="M450,690 L470,640 L490,690 Z" />
    <path d="M550,700 L570,650 L590,700 Z" />
    <path d="M650,710 L670,660 L690,710 Z" />
    <path d="M750,695 L770,645 L790,695 Z" />
    
    <!-- Секция 2 -->
    <path d="M900,700 L920,650 L940,700 Z" />
    <path d="M980,710 L1000,660 L1020,710 Z" />
    <path d="M1060,695 L1080,645 L1100,695 Z" />
    <path d="M1150,705 L1170,655 L1190,705 Z" />
    <path d="M1250,690 L1270,640 L1290,690 Z" />
    <path d="M1350,700 L1370,650 L1390,700 Z" />
    <path d="M1450,710 L1470,660 L1490,710 Z" />
    <path d="M1550,695 L1570,645 L1590,695 Z" />
    
    <!-- Секция 3 -->
    <path d="M1700,700 L1720,650 L1740,700 Z" />
    <path d="M1780,710 L1800,660 L1820,710 Z" />
    <path d="M1860,695 L1880,645 L1900,695 Z" />
    <path d="M1950,705 L1970,655 L1990,705 Z" />
    <path d="M2050,690 L2070,640 L2090,690 Z" />
    <path d="M2150,700 L2170,650 L2190,700 Z" />
    <path d="M2250,710 L2270,660 L2290,710 Z" />
    <path d="M2350,695 L2370,645 L2390,695 Z" />
    
    <!-- Секция 4 -->
    <path d="M2500,700 L2520,650 L2540,700 Z" />
    <path d="M2580,710 L2600,660 L2620,710 Z" />
    <path d="M2660,695 L2680,645 L2700,695 Z" />
    <path d="M2750,705 L2770,655 L2790,705 Z" />
    <path d="M2850,690 L2870,640 L2890,690 Z" />
    <path d="M2950,700 L2970,650 L2990,700 Z" />
    <path d="M3050,710 L3070,660 L3090,710 Z" />
    <path d="M3150,695 L3170,645 L3190,695 Z" />
    
    <!-- Продолжение паттерна через весь холст с шагом 800 -->
    <!-- Генерируем деревья каждые 100 пикселей со случайной высотой -->
    <path d="M3300,700 L3320,650 L3340,700 Z" />
    <path d="M3400,710 L3420,660 L3440,710 Z" />
    <path d="M3500,695 L3520,645 L3540,695 Z" />
    <path d="M3600,705 L3620,655 L3640,705 Z" />
    <path d="M3700,690 L3720,640 L3740,690 Z" />
    <path d="M3800,700 L3820,650 L3840,700 Z" />
    <path d="M3900,710 L3920,660 L3940,710 Z" />
    <path d="M4000,695 L4020,645 L4040,695 Z" />
    <path d="M4100,700 L4120,650 L4140,700 Z" />
    <path d="M4200,710 L4220,660 L4240,710 Z" />
    <path d="M4300,695 L4320,645 L4340,695 Z" />
    <path d="M4400,705 L4420,655 L4440,705 Z" />
    <path d="M4500,690 L4520,640 L4540,690 Z" />
    <path d="M4600,700 L4620,650 L4640,700 Z" />
    <path d="M4700,710 L4720,660 L4740,710 Z" />
    <path d="M4800,695 L4820,645 L4840,695 Z" />
    
    <!-- Заполняем оставшуюся часть холста деревьями -->
    <!-- Для краткости продолжаем паттерн до конца -->
    <path d="M5000,700 L5020,648 L5040,700 Z" />
    <path d="M5200,708 L5220,652 L5240,708 Z" />
    <path d="M5400,692 L5420,642 L5440,692 Z" />
    <path d="M5600,702 L5620,654 L5640,702 Z" />
    <path d="M5800,688 L5820,638 L5840,688 Z" />
    <path d="M6000,698 L6020,646 L6040,698 Z" />
    <path d="M6200,706 L6220,656 L6240,706 Z" />
    <path d="M6400,694 L6420,644 L6440,694 Z" />
    <path d="M6600,704 L6620,658 L6640,704 Z" />
    <path d="M6800,686 L6820,636 L6840,686 Z" />
    <path d="M7000,696 L7020,648 L7040,696 Z" />
    <path d="M7200,710 L7220,660 L7240,710 Z" />
    <path d="M7400,690 L7420,640 L7440,690 Z" />
    <path d="M7600,700 L7620,650 L7640,700 Z" />
    <path d="M7800,705 L7820,655 L7840,705 Z" />
    <path d="M8000,695 L8020,645 L8040,695 Z" />
    
    <!-- Продолжаем до конца изображения (упрощённо, с большим шагом) -->
    <!-- Для экономии места используем более редкие деревья -->
    <path d="M8500,700 L8525,645 L8550,700 Z" />
    <path d="M9000,705 L9025,650 L9050,705 Z" />
    <path d="M9500,695 L9525,640 L9550,695 Z" />
    <path d="M10000,700 L10025,648 L10050,700 Z" />
    <path d="M10500,708 L10525,652 L10550,708 Z" />
    <path d="M11000,692 L11025,642 L11050,692 Z" />
    <path d="M11500,702 L11525,654 L11550,702 Z" />
    <path d="M12000,688 L12025,638 L12050,688 Z" />
    <path d="M12500,698 L12525,646 L12550,698 Z" />
    <path d="M13000,706 L13025,656 L13050,706 Z" />
    <path d="M13500,694 L13525,644 L13550,694 Z" />
    <path d="M14000,704 L14025,658 L14050,704 Z" />
    <path d="M14500,686 L14525,636 L14550,686 Z" />
    <path d="M15000,696 L15025,648 L15050,696 Z" />
    <path d="M15500,710 L15525,660 L15550,710 Z" />
    <path d="M16000,690 L16025,640 L16050,690 Z" />
    <path d="M16500,700 L16525,650 L16550,700 Z" />
    <path d="M17000,705 L17025,655 L17050,705 Z" />
    <path d="M17500,695 L17525,645 L17550,695 Z" />
    <path d="M18000,700 L18025,645 L18050,700 Z" />
    <path d="M18500,708 L18525,652 L18550,708 Z" />
    <path d="M19000,692 L19025,642 L19050,692 Z" />
    <path d="M19500,702 L19525,654 L19550,702 Z" />
    <path d="M20000,688 L20025,638 L20050,688 Z" />
    <path d="M20500,698 L20525,646 L20550,698 Z" />
    <path d="M21000,706 L21025,656 L21050,706 Z" />
    <path d="M21500,694 L21525,644 L21550,694 Z" />
    <path d="M22000,704 L22025,658 L22050,704 Z" />
    <path d="M22500,686 L22525,636 L22550,686 Z" />
    <path d="M23000,696 L23025,648 L23050,696 Z" />
    <path d="M23500,710 L23525,660 L23550,710 Z" />
    <path d="M24000,690 L24025,640 L24050,690 Z" />
    <path d="M24500,700 L24525,650 L24550,700 Z" />
    <path d="M25000,705 L25025,655 L25050,705 Z" />
    <path d="M25500,695 L25525,645 L25550,695 Z" />
    <path d="M26000,700 L26025,645 L26050,700 Z" />
    <path d="M26500,708 L26525,652 L26550,708 Z" />
    <path d="M27000,692 L27025,642 L27050,692 Z" />
    <path d="M27500,702 L27525,654 L27550,702 Z" />
    <path d="M28000,688 L28025,638 L28050,688 Z" />
    <path d="M28500,698 L28525,646 L28550,698 Z" />
    <path d="M29000,706 L29025,656 L29050,706 Z" />
    <path d="M29500,694 L29525,644 L29550,694 Z" />
    <path d="M30000,704 L30025,658 L30050,704 Z" />
    <path d="M30500,686 L30525,636 L30550,686 Z" />
    <path d="M31000,696 L31025,648 L31050,696 Z" />
    <path d="M31500,710 L31525,660 L31550,710 Z" />
    <path d="M32000,690 L32025,640 L32050,690 Z" />
    <path d="M32500,700 L32525,650 L32550,700 Z" />
    <path d="M32700,705 L32725,655 L32750,705 Z" />
  </g>
</svg>
