<svg xmlns="http://www.w3.org/2000/svg" width="32768" height="1024" viewBox="0 0 32768 1024">
  <defs>
    <!-- Градиент для ближних холмов -->
    <linearGradient id="nearHillsGradient" x1="0%" y1="0%" x2="0%" y2="100%">
      <stop offset="0%" style="stop-color:#2d5a3d;stop-opacity:1" />
      <stop offset="100%" style="stop-color:#1a3c2a;stop-opacity:1" />
    </linearGradient>
    
    <!-- Градиент для деревьев на ближнем плане -->
    <linearGradient id="nearTreesGradient" x1="0%" y1="0%" x2="0%" y2="100%">
      <stop offset="0%" style="stop-color:#1e3d2f;stop-opacity:1" />
      <stop offset="100%" style="stop-color:#0f251a;stop-opacity:1" />
    </linearGradient>
    
    <!-- Градиент для травы -->
    <linearGradient id="grassGradient" x1="0%" y1="0%" x2="0%" y2="100%">
      <stop offset="0%" style="stop-color:#3d7c59;stop-opacity:1" />
      <stop offset="100%" style="stop-color:#2d5a3d;stop-opacity:1" />
    </linearGradient>
  </defs>
  
  <!-- Ближние холмы с более выраженной детализацией -->
  <g fill="url(#nearHillsGradient)">
    <path d="M0,750 Q300,680 600,730 T1200,700 T1800,750 T2400,710 T3000,740 T3600,690 T4200,750 T4800,720 T5400,740 T6000,700 T6600,750 T7200,710 T7800,740 T8400,690 T9000,750 T9600,720 T10200,740 T10800,700 T11400,750 T12000,710 T12600,740 T13200,690 T13800,750 T14400,720 T15000,740 T15600,700 T16200,750 T16800,710 T17400,740 T18000,690 T18600,750 T19200,720 T19800,740 T20400,700 T21000,750 T21600,710 T22200,740 T22800,690 T23400,750 T24000,720 T24600,740 T25200,700 T25800,750 T26400,710 T27000,740 T27600,690 T28200,750 T28800,720 T29400,740 T30000,700 T30600,750 T31200,710 T31800,740 T32400,690 T32768,720 L32768,1024 L0,1024 Z" />
    <path d="M0,770 Q400,710 800,750 T1600,730 T2400,770 T3200,740 T4000,760 T4800,720 T5600,770 T6400,740 T7200,760 T8000,730 T8800,770 T9600,740 T10400,760 T11200,720 T12000,770 T12800,740 T13600,760 T14400,730 T15200,770 T16000,740 T16800,760 T17600,720 T18400,770 T19200,740 T20000,760 T20800,730 T21600,770 T22400,740 T23200,760 T24000,720 T24800,770 T25600,740 T26400,760 T27200,730 T28000,770 T28800,740 T29600,760 T30400,720 T31200,770 T32000,740 T32768,750 L32768,1024 L0,1024 Z" opacity="0.85" />
  </g>
  
  <!-- Трава на переднем плане -->
  <g fill="url(#grassGradient)">
    <path d="M0,800 L50,780 L100,800 L150,785 L200,800 L250,790 L300,800 L350,785 L400,800 L450,790 L500,800 L550,785 L600,800 L650,790 L700,800 L750,785 L800,800 L850,790 L900,800 L950,785 L1000,800 L1050,790 L1100,800 L1150,785 L1200,800 L1250,790 L1300,800 L1350,785 L1400,800 L1450,790 L1500,800 L1550,785 L1600,800 L1650,790 L1700,800 L1750,785 L1800,800 L1850,790 L1900,800 L1950,785 L2000,800 L2050,790 L2100,800 L2150,785 L2200,800 L2250,790 L2300,800 L2350,785 L2400,800 L2450,790 L2500,800 L2550,785 L2600,800 L2650,790 L2700,800 L2750,785 L2800,800 L2850,790 L2900,800 L2950,785 L3000,800 L3050,790 L3100,800 L3150,785 L3200,800 L3250,790 L3300,800 L3350,785 L3400,800 L3450,790 L3500,800 L3550,785 L3600,800 L3650,790 L3700,800 L3750,785 L3800,800 L3850,790 L3900,800 L3950,785 L4000,800 L4050,790 L4100,800 L4150,785 L4200,800 L4250,790 L4300,800 L4350,785 L4400,800 L4450,790 L4500,800 L4550,785 L4600,800 L4650,790 L4700,800 L4750,785 L4800,800 L4850,790 L4900,800 L4950,785 L5000,800 L5050,790 L5100,800 L5150,785 L5200,800 L5250,790 L5300,800 L5350,785 L5400,800 L5450,790 L5500,800 L5550,785 L5600,800 L5650,790 L5700,800 L5750,785 L5800,800 L5850,790 L5900,800 L5950,785 L6000,800 L6050,790 L6100,800 L6150,785 L6200,800 L6250,790 L6300,800 L6350,785 L6400,800 L6450,790 L6500,800 L6550,785 L6600,800 L6650,790 L6700,800 L6750,785 L6800,800 L6850,790 L6900,800 L6950,785 L7000,800 L7050,790 L7100,800 L7150,785 L7200,800 L7250,790 L7300,800 L7350,785 L7400,800 L7450,790 L7500,800 L7550,785 L7600,800 L7650,790 L7700,800 L7750,785 L7800,800 L7850,790 L7900,800 L7950,785 L8000,800 L8050,790 L8100,800 L8150,785 L8200,800 L8250,790 L8300,800 L8350,785 L8400,800 L8450,790 L8500,800 L8550,785 L8600,800 L8650,790 L8700,800 L8750,785 L8800,800 L8850,790 L8900,800 L8950,785 L9000,800 L9050,790 L9100,800 L9150,785 L9200,800 L9250,790 L9300,800 L9350,785 L9400,800 L9450,790 L9500,800 L9550,785 L9600,800 L9650,790 L9700,800 L9750,785 L9800,800 L9850,790 L9900,800 L9950,785 L10000,800 L10050,790 L10100,800 L10150,785 L10200,800 L10250,790 L10300,800 L10350,785 L10400,800 L10450,790 L10500,800 L10550,785 L10600,800 L10650,790 L10700,800 L10750,785 L10800,800 L10850,790 L10900,800 L10950,785 L11000,800 L11050,790 L11100,800 L11150,785 L11200,800 L11250,790 L11300,800 L11350,785 L11400,800 L11450,790 L11500,800 L11550,785 L11600,800 L11650,790 L11700,800 L11750,785 L11800,800 L11850,790 L11900,800 L11950,785 L12000,800 L12050,790 L12100,800 L12150,785 L12200,800 L12250,790 L12300,800 L12350,785 L12400,800 L12450,790 L12500,800 L12550,785 L12600,800 L12650,790 L12700,800 L12750,785 L12800,800 L12850,790 L12900,800 L12950,785 L13000,800 L13050,790 L13100,800 L13150,785 L13200,800 L13250,790 L13300,800 L13350,785 L13400,800 L13450,790 L13500,800 L13550,785 L13600,800 L13650,790 L13700,800 L13750,785 L13800,800 L13850,790 L13900,800 L13950,785 L14000,800 L14050,790 L14100,800 L14150,785 L14200,800 L14250,790 L14300,800 L14350,785 L14400,800 L14450,790 L14500,800 L14550,785 L14600,800 L14650,790 L14700,800 L14750,785 L14800,800 L14850,790 L14900,800 L14950,785 L15000,800 L15050,790 L15100,800 L15150,785 L15200,800 L15250,790 L15300,800 L15350,785 L15400,800 L15450,790 L15500,800 L15550,785 L15600,800 L15650,790 L15700,800 L15750,785 L15800,800 L15850,790 L15900,800 L15950,785 L16000,800 L16050,790 L16100,800 L16150,785 L16200,800 L16250,790 L16300,800 L16350,785 L16400,800 L16450,790 L16500,800 L16550,785 L16600,800 L16650,790 L16700,800 L16750,785 L16800,800 L16850,790 L16900,800 L16950,785 L17000,800 L17050,790 L17100,800 L17150,785 L17200,800 L17250,790 L17300,800 L17350,785 L17400,800 L17450,790 L17500,800 L17550,785 L17600,800 L17650,790 L17700,800 L17750,785 L17800,800 L17850,790 L17900,800 L17950,785 L18000,800 L18050,790 L18100,800 L18150,785 L18200,800 L18250,790 L18300,800 L18350,785 L18400,800 L18450,790 L18500,800 L18550,785 L18600,800 L18650,790 L18700,800 L18750,785 L18800,800 L18850,790 L18900,800 L18950,785 L19000,800 L19050,790 L19100,800 L19150,785 L19200,800 L19250,790 L19300,800 L19350,785 L19400,800 L19450,790 L19500,800 L19550,785 L19600,800 L19650,790 L19700,800 L19750,785 L19800,800 L19850,790 L19900,800 L19950,785 L20000,800 L20050,790 L20100,800 L20150,785 L20200,800 L20250,790 L20300,800 L20350,785 L20400,800 L20450,790 L20500,800 L20550,785 L20600,800 L20650,790 L20700,800 L20750,785 L20800,800 L20850,790 L20900,800 L20950,785 L21000,800 L21050,790 L21100,800 L21150,785 L21200,800 L21250,790 L21300,800 L21350,785 L21400,800 L21450,790 L21500,800 L21550,785 L21600,800 L21650,790 L21700,800 L21750,785 L21800,800 L21850,790 L21900,800 L21950,785 L22000,800 L22050,790 L22100,800 L22150,785 L22200,800 L22250,790 L22300,800 L22350,785 L22400,800 L22450,790 L22500,800 L22550,785 L22600,800 L22650,790 L22700,800 L22750,785 L22800,800 L22850,790 L22900,800 L22950,785 L23000,800 L23050,790 L23100,800 L23150,785 L23200,800 L23250,790 L23300,800 L23350,785 L23400,800 L23450,790 L23500,800 L23550,785 L23600,800 L23650,790 L23700,800 L23750,785 L23800,800 L23850,790 L23900,800 L23950,785 L24000,800 L24050,790 L24100,800 L24150,785 L24200,800 L24250,790 L24300,800 L24350,785 L24400,800 L24450,790 L24500,800 L24550,785 L24600,800 L24650,790 L24700,800 L24750,785 L24800,800 L24850,790 L24900,800 L24950,785 L25000,800 L25050,790 L25100,800 L25150,785 L25200,800 L25250,790 L25300,800 L25350,785 L25400,800 L25450,790 L25500,800 L25550,785 L25600,800 L25650,790 L25700,800 L25750,785 L25800,800 L25850,790 L25900,800 L25950,785 L26000,800 L26050,790 L26100,800 L26150,785 L26200,800 L26250,790 L26300,800 L26350,785 L26400,800 L26450,790 L26500,800 L26550,785 L26600,800 L26650,790 L26700,800 L26750,785 L26800,800 L26850,790 L26900,800 L26950,785 L27000,800 L27050,790 L27100,800 L27150,785 L27200,800 L27250,790 L27300,800 L27350,785 L27400,800 L27450,790 L27500,800 L27550,785 L27600,800 L27650,790 L27700,800 L27750,785 L27800,800 L27850,790 L27900,800 L27950,785 L28000,800 L28050,790 L28100,800 L28150,785 L28200,800 L28250,790 L28300,800 L28350,785 L28400,800 L28450,790 L28500,800 L28550,785 L28600,800 L28650,790 L28700,800 L28750,785 L28800,800 L28850,790 L28900,800 L28950,785 L29000,800 L29050,790 L29100,800 L29150,785 L29200,800 L29250,790 L29300,800 L29350,785 L29400,800 L29450,790 L29500,800 L29550,785 L29600,800 L29650,790 L29700,800 L29750,785 L29800,800 L29850,790 L29900,800 L29950,785 L30000,800 L30050,790 L30100,800 L30150,785 L30200,800 L30250,790 L30300,800 L30350,785 L30400,800 L30450,790 L30500,800 L30550,785 L30600,800 L30650,790 L30700,800 L30750,785 L30800,800 L30850,790 L30900,800 L30950,785 L31000,800 L31050,790 L31100,800 L31150,785 L31200,800 L31250,790 L31300,800 L31350,785 L31400,800 L31450,790 L31500,800 L31550,785 L31600,800 L31650,790 L31700,800 L31750,785 L31800,800 L31850,790 L31900,800 L31950,785 L32000,800 L32050,790 L32100,800 L32150,785 L32200,800 L32250,790 L32300,800 L32350,785 L32400,800 L32450,790 L32500,800 L32550,785 L32600,800 L32650,790 L32700,800 L32750,785 L32768,790 L32768,1024 L0,1024 Z" />
  </g>
  
  <!-- Крупные деревья на ближнем плане (детализированные) -->
  <g fill="url(#nearTreesGradient)">
    <!-- Деревья с более сложной формой -->
    <!-- Секция 1 -->
    <path d="M50,800 L60,750 L70,800 Z M55,770 L65,770 L60,750 Z" />
    <path d="M200,800 L215,740 L230,800 Z M210,765 L220,765 L215,740 Z M205,780 L225,780 L215,765 Z" />
    <path d="M380,800 L395,745 L410,800 Z M390,768 L400,768 L395,745 Z M385,783 L405,783 L395,768 Z" />
    <path d="M550,800 L568,735 L586,800 Z M562,760 L574,760 L568,735 Z M556,775 L580,775 L568,760 Z M553,788 L583,788 L568,775 Z" />
    <path d="M750,800 L765,748 L780,800 Z M760,770 L770,770 L765,748 Z" />
    <path d="M920,800 L938,738 L956,800 Z M932,762 L944,762 L938,738 Z M926,777 L950,777 L938,762 Z M923,790 L953,790 L938,777 Z" />
    <path d="M1100,800 L1115,745 L1130,800 Z M1110,768 L1120,768 L1115,745 Z" />
    <path d="M1280,800 L1298,732 L1316,800 Z M1292,758 L1304,758 L1298,732 Z M1286,773 L1310,773 L1298,758 Z M1283,786 L1313,786 L1298,773 Z" />
    
    <!-- Продолжение паттерна деревьев -->
    <path d="M1480,800 L1495,750 L1510,800 Z" />
    <path d="M1650,800 L1668,740 L1686,800 Z M1662,765 L1674,765 L1668,740 Z" />
    <path d="M1830,800 L1845,748 L1860,800 Z" />
    <path d="M2000,800 L2018,735 L2036,800 Z M2012,760 L2024,760 L2018,735 Z M2006,775 L2030,775 L2018,760 Z" />
    <path d="M2180,800 L2195,752 L2210,800 Z" />
    <path d="M2350,800 L2368,738 L2386,800 Z M2362,762 L2374,762 L2368,738 Z M2356,777 L2380,777 L2368,762 Z" />
    <path d="M2530,800 L2545,745 L2560,800 Z" />
    <path d="M2700,800 L2718,732 L2736,800 Z M2712,758 L2724,758 L2718,732 Z M2706,773 L2730,773 L2718,758 Z" />
    
    <!-- Заполняем оставшуюся часть -->
    <path d="M2900,800 L2915,750 L2930,800 Z" />
    <path d="M3070,800 L3088,740 L3106,800 Z" />
    <path d="M3250,800 L3265,748 L3280,800 Z" />
    <path d="M3420,800 L3438,735 L3456,800 Z" />
    <path d="M3600,800 L3615,752 L3630,800 Z" />
    <path d="M3770,800 L3788,738 L3806,800 Z" />
    <path d="M3950,800 L3965,745 L3980,800 Z" />
    <path d="M4120,800 L4138,732 L4156,800 Z" />
    
    <!-- Продолжаем с большим шагом до конца изображения -->
    <path d="M4350,800 L4368,742 L4386,800 Z" />
    <path d="M4580,800 L4598,736 L4616,800 Z" />
    <path d="M4810,800 L4828,744 L4846,800 Z" />
    <path d="M5040,800 L5058,738 L5076,800 Z" />
    <path d="M5270,800 L5288,746 L5306,800 Z" />
    <path d="M5500,800 L5518,740 L5536,800 Z" />
    <path d="M5730,800 L5748,748 L5766,800 Z" />
    <path d="M5960,800 L5978,742 L5996,800 Z" />
    <path d="M6190,800 L6208,750 L6226,800 Z" />
    <path d="M6420,800 L6438,744 L6456,800 Z" />
    <path d="M6650,800 L6668,752 L6686,800 Z" />
    <path d="M6880,800 L6898,746 L6916,800 Z" />
    <path d="M7110,800 L7128,754 L7146,800 Z" />
    <path d="M7340,800 L7358,748 L7376,800 Z" />
    <path d="M7570,800 L7588,756 L7606,800 Z" />
    <path d="M7800,800 L7818,750 L7836,800 Z" />
    <path d="M8030,800 L8048,758 L8066,800 Z" />
    <path d="M8260,800 L8278,752 L8296,800 Z" />
    <path d="M8490,800 L8508,760 L8526,800 Z" />
    <path d="M8720,800 L8738,754 L8756,800 Z" />
    <path d="M8950,800 L8968,762 L8986,800 Z" />
    <path d="M9180,800 L9198,756 L9216,800 Z" />
    <path d="M9410,800 L9428,764 L9446,800 Z" />
    <path d="M9640,800 L9658,758 L9676,800 Z" />
    <path d="M9870,800 L9888,766 L9906,800 Z" />
    <path d="M10100,800 L10118,760 L10136,800 Z" />
    <path d="M10330,800 L10348,768 L10366,800 Z" />
    <path d="M10560,800 L10578,762 L10596,800 Z" />
    <path d="M10790,800 L10808,770 L10826,800 Z" />
    <path d="M11020,800 L11038,764 L11056,800 Z" />
    <path d="M11250,800 L11268,772 L11286,800 Z" />
    <path d="M11480,800 L11498,766 L11516,800 Z" />
    <path d="M11710,800 L11728,774 L11746,800 Z" />
    <path d="M11940,800 L11958,768 L11976,800 Z" />
    <path d="M12170,800 L12188,776 L12206,800 Z" />
    <path d="M12400,800 L12418,770 L12436,800 Z" />
    <path d="M12630,800 L12648,778 L12666,800 Z" />
    <path d="M12860,800 L12878,772 L12896,800 Z" />
    <path d="M13090,800 L13108,780 L13126,800 Z" />
    <path d="M13320,800 L13338,774 L13356,800 Z" />
    <path d="M13550,800 L13568,782 L13586,800 Z" />
    <path d="M13780,800 L13798,776 L13816,800 Z" />
    <path d="M14010,800 L14028,784 L14046,800 Z" />
    <path d="M14240,800 L14258,778 L14276,800 Z" />
    <path d="M14470,800 L14488,786 L14506,800 Z" />
    <path d="M14700,800 L14718,780 L14736,800 Z" />
    <path d="M14930,800 L14948,788 L14966,800 Z" />
    <path d="M15160,800 L15178,782 L15196,800 Z" />
    <path d="M15390,800 L15408,790 L15426,800 Z" />
    <path d="M15620,800 L15638,784 L15656,800 Z" />
    <path d="M15850,800 L15868,792 L15886,800 Z" />
    <path d="M16080,800 L16098,786 L16116,800 Z" />
    <path d="M16310,800 L16328,794 L16346,800 Z" />
    <path d="M16540,800 L16558,788 L16576,800 Z" />
    <path d="M16770,800 L16788,796 L16806,800 Z" />
    <path d="M17000,800 L17018,790 L17036,800 Z" />
    <path d="M17230,800 L17248,798 L17266,800 Z" />
    <path d="M17460,800 L17478,792 L17496,800 Z" />
    <path d="M17690,800 L17708,800 L17726,800 Z" />
    <path d="M17920,800 L17938,794 L17956,800 Z" />
    <path d="M18150,800 L18168,802 L18186,800 Z" />
    <path d="M18380,800 L18398,796 L18416,800 Z" />
    <path d="M18610,800 L18628,804 L18646,800 Z" />
    <path d="M18840,800 L18858,798 L18876,800 Z" />
    <path d="M19070,800 L19088,806 L19106,800 Z" />
    <path d="M19300,800 L19318,800 L19336,800 Z" />
    <path d="M19530,800 L19548,802 L19566,800 Z" />
    <path d="M19760,800 L19778,796 L19796,800 Z" />
    <path d="M19990,800 L20008,804 L20026,800 Z" />
    <path d="M20220,800 L20238,798 L20256,800 Z" />
    <path d="M20450,800 L20468,806 L20486,800 Z" />
    <path d="M20680,800 L20698,800 L20716,800 Z" />
    <path d="M20910,800 L20928,802 L20946,800 Z" />
    <path d="M21140,800 L21158,796 L21176,800 Z" />
    <path d="M21370,800 L21388,804 L21406,800 Z" />
    <path d="M21600,800 L21618,798 L21636,800 Z" />
    <path d="M21830,800 L21848,806 L21866,800 Z" />
    <path d="M22060,800 L22078,800 L22096,800 Z" />
    <path d="M22290,800 L22308,802 L22326,800 Z" />
    <path d="M22520,800 L22538,796 L22556,800 Z" />
    <path d="M22750,800 L22768,804 L22786,800 Z" />
    <path d="M22980,800 L22998,798 L23016,800 Z" />
    <path d="M23210,800 L23228,806 L23246,800 Z" />
    <path d="M23440,800 L23458,800 L23476,800 Z" />
    <path d="M23670,800 L23688,802 L23706,800 Z" />
    <path d="M23900,800 L23918,796 L23936,800 Z" />
    <path d="M24130,800 L24148,804 L24166,800 Z" />
    <path d="M24360,800 L24378,798 L24396,800 Z" />
    <path d="M24590,800 L24608,806 L24626,800 Z" />
    <path d="M24820,800 L24838,800 L24856,800 Z" />
    <path d="M25050,800 L25068,802 L25086,800 Z" />
    <path d="M25280,800 L25298,796 L25316,800 Z" />
    <path d="M25510,800 L25528,804 L25546,800 Z" />
    <path d="M25740,800 L25758,798 L25776,800 Z" />
    <path d="M25970,800 L25988,806 L26006,800 Z" />
    <path d="M26200,800 L26218,800 L26236,800 Z" />
    <path d="M26430,800 L26448,802 L26466,800 Z" />
    <path d="M26660,800 L26678,796 L26696,800 Z" />
    <path d="M26890,800 L26908,804 L26926,800 Z" />
    <path d="M27120,800 L27138,798 L27156,800 Z" />
    <path d="M27350,800 L27368,806 L27386,800 Z" />
    <path d="M27580,800 L27598,800 L27616,800 Z" />
    <path d="M27810,800 L27828,802 L27846,800 Z" />
    <path d="M28040,800 L28058,796 L28076,800 Z" />
    <path d="M28270,800 L28288,804 L28306,800 Z" />
    <path d="M28500,800 L28518,798 L28536,800 Z" />
    <path d="M28730,800 L28748,806 L28766,800 Z" />
    <path d="M28960,800 L28978,800 L28996,800 Z" />
    <path d="M29190,800 L29208,802 L29226,800 Z" />
    <path d="M29420,800 L29438,796 L29456,800 Z" />
    <path d="M29650,800 L29668,804 L29686,800 Z" />
    <path d="M29880,800 L29898,798 L29916,800 Z" />
    <path d="M30110,800 L30128,806 L30146,800 Z" />
    <path d="M30340,800 L30358,800 L30376,800 Z" />
    <path d="M30570,800 L30588,802 L30606,800 Z" />
    <path d="M30800,800 L30818,796 L30836,800 Z" />
    <path d="M31030,800 L31048,804 L31066,800 Z" />
    <path d="M31260,800 L31278,798 L31296,800 Z" />
    <path d="M31490,800 L31508,806 L31526,800 Z" />
    <path d="M31720,800 L31738,800 L31756,800 Z" />
    <path d="M31950,800 L31968,802 L31986,800 Z" />
    <path d="M32180,800 L32198,796 L32216,800 Z" />
    <path d="M32410,800 L32428,804 L32446,800 Z" />
    <path d="M32640,800 L32658,798 L32676,800 Z" />
    <path d="M32750,800 L32765,755 L32780,800 Z" />
  </g>
  
  <!-- Камни и детали на переднем плане -->
  <g fill="#3a4a3d">
    <ellipse cx="150" cy="820" rx="30" ry="15" />
    <ellipse cx="450" cy="830" rx="25" ry="12" />
    <ellipse cx="780" cy="825" rx="35" ry="18" />
    <ellipse cx="1120" cy="835" rx="28" ry="14" />
    <ellipse cx="1450" cy="828" rx="32" ry="16" />
    <ellipse cx="1780" cy="832" rx="26" ry="13" />
    <ellipse cx="2100" cy="826" rx="30" ry="15" />
    <ellipse cx="2430" cy="834" rx="27" ry="14" />
    <ellipse cx="2760" cy="829" rx="33" ry="17" />
    <ellipse cx="3090" cy="833" rx="29" ry="15" />
    <ellipse cx="3420" cy="827" rx="31" ry="16" />
    <ellipse cx="3750" cy="831" rx="28" ry="14" />
    <ellipse cx="4080" cy="825" rx="34" ry="18" />
    <ellipse cx="4410" cy="835" rx="26" ry="13" />
    <ellipse cx="4740" cy="830" rx="30" ry="15" />
    <ellipse cx="5070" cy="828" rx="32" ry="16" />
    <ellipse cx="5400" cy="832" rx="27" ry="14" />
    <ellipse cx="5730" cy="826" rx="33" ry="17" />
    <ellipse cx="6060" cy="834" rx="29" ry="15" />
    <ellipse cx="6390" cy="829" rx="31" ry="16" />
    <ellipse cx="6720" cy="833" rx="28" ry="14" />
    <ellipse cx="7050" cy="827" rx="35" ry="18" />
    <ellipse cx="7380" cy="831" rx="26" ry="13" />
    <ellipse cx="7710" cy="825" rx="30" ry="15" />
    <ellipse cx="8040" cy="835" rx="32" ry="16" />
    <ellipse cx="8370" cy="830" rx="27" ry="14" />
    <ellipse cx="8700" cy="828" rx="34" ry="18" />
    <ellipse cx="9030" cy="832" rx="29" ry="15" />
    <ellipse cx="9360" cy="826" rx="31" ry="16" />
    <ellipse cx="9690" cy="834" rx="28" ry="14" />
    <ellipse cx="10020" cy="829" rx="33" ry="17" />
    <ellipse cx="10350" cy="833" rx="30" ry="15" />
    <ellipse cx="10680" cy="827" rx="32" ry="16" />
    <ellipse cx="11010" cy="831" rx="27" ry="14" />
    <ellipse cx="11340" cy="825" rx="35" ry="18" />
    <ellipse cx="11670" cy="835" rx="26" ry="13" />
    <ellipse cx="12000" cy="830" rx="30" ry="15" />
    <ellipse cx="12330" cy="828" rx="32" ry="16" />
    <ellipse cx="12660" cy="832" rx="28" ry="14" />
    <ellipse cx="12990" cy="826" rx="34" ry="18" />
    <ellipse cx="13320" cy="834" rx="29" ry="15" />
    <ellipse cx="13650" cy="829" rx="31" ry="16" />
    <ellipse cx="13980" cy="833" rx="27" ry="14" />
    <ellipse cx="14310" cy="827" rx="33" ry="17" />
    <ellipse cx="14640" cy="831" rx="30" ry="15" />
    <ellipse cx="14970" cy="825" rx="32" ry="16" />
    <ellipse cx="15300" cy="835" rx="28" ry="14" />
    <ellipse cx="15630" cy="830" rx="35" ry="18" />
    <ellipse cx="15960" cy="828" rx="26" ry="13" />
    <ellipse cx="16290" cy="832" rx="30" ry="15" />
    <ellipse cx="16620" cy="826" rx="32" ry="16" />
    <ellipse cx="16950" cy="834" rx="27" ry="14" />
    <ellipse cx="17280" cy="829" rx="34" ry="18" />
    <ellipse cx="17610" cy="833" rx="29" ry="15" />
    <ellipse cx="17940" cy="827" rx="31" ry="16" />
    <ellipse cx="18270" cy="831" rx="28" ry="14" />
    <ellipse cx="18600" cy="825" rx="33" ry="17" />
    <ellipse cx="18930" cy="835" rx="30" ry="15" />
    <ellipse cx="19260" cy="830" rx="32" ry="16" />
    <ellipse cx="19590" cy="828" rx="27" ry="14" />
    <ellipse cx="19920" cy="832" rx="35" ry="18" />
    <ellipse cx="20250" cy="826" rx="26" ry="13" />
    <ellipse cx="20580" cy="834" rx="30" ry="15" />
    <ellipse cx="20910" cy="829" rx="32" ry="16" />
    <ellipse cx="21240" cy="833" rx="28" ry="14" />
    <ellipse cx="21570" cy="827" rx="34" ry="18" />
    <ellipse cx="21900" cy="831" rx="29" ry="15" />
    <ellipse cx="22230" cy="825" rx="31" ry="16" />
    <ellipse cx="22560" cy="835" rx="27" ry="14" />
    <ellipse cx="22890" cy="830" rx="33" ry="17" />
    <ellipse cx="23220" cy="828" rx="30" ry="15" />
    <ellipse cx="23550" cy="832" rx="32" ry="16" />
    <ellipse cx="23880" cy="826" rx="28" ry="14" />
    <ellipse cx="24210" cy="834" rx="35" ry="18" />
    <ellipse cx="24540" cy="829" rx="26" ry="13" />
    <ellipse cx="24870" cy="833" rx="30" ry="15" />
    <ellipse cx="25200" cy="827" rx="32" ry="16" />
    <ellipse cx="25530" cy="831" rx="27" ry="14" />
    <ellipse cx="25860" cy="825" rx="34" ry="18" />
    <ellipse cx="26190" cy="835" rx="29" ry="15" />
    <ellipse cx="26520" cy="830" rx="31" ry="16" />
    <ellipse cx="26850" cy="828" rx="28" ry="14" />
    <ellipse cx="27180" cy="832" rx="33" ry="17" />
    <ellipse cx="27510" cy="826" rx="30" ry="15" />
    <ellipse cx="27840" cy="834" rx="32" ry="16" />
    <ellipse cx="28170" cy="829" rx="27" ry="14" />
    <ellipse cx="28500" cy="833" rx="35" ry="18" />
    <ellipse cx="28830" cy="827" rx="26" ry="13" />
    <ellipse cx="29160" cy="831" rx="30" ry="15" />
    <ellipse cx="29490" cy="825" rx="32" ry="16" />
    <ellipse cx="29820" cy="835" rx="28" ry="14" />
    <ellipse cx="30150" cy="830" rx="34" ry="18" />
    <ellipse cx="30480" cy="828" rx="29" ry="15" />
    <ellipse cx="30810" cy="832" rx="31" ry="16" />
    <ellipse cx="31140" cy="826" rx="27" ry="14" />
    <ellipse cx="31470" cy="834" rx="33" ry="17" />
    <ellipse cx="31800" cy="829" rx="30" ry="15" />
    <ellipse cx="32130" cy="833" rx="32" ry="16" />
    <ellipse cx="32460" cy="827" rx="28" ry="14" />
    <ellipse cx="32720" cy="831" rx="30" ry="15" />
  </g>
</svg>
