<svg xmlns="http://www.w3.org/2000/svg" width="32768" height="1024" viewBox="0 0 32768 1024">
  <defs>
    <!-- Градиент для атмосферной перспективы -->
    <linearGradient id="farMountainsGradient" x1="0%" y1="0%" x2="0%" y2="100%">
      <stop offset="0%" style="stop-color:#6b7a8f;stop-opacity:1" />
      <stop offset="100%" style="stop-color:#4a5568;stop-opacity:1" />
    </linearGradient>
  </defs>
  
  <!-- Дальние горы - самые размытые и бледные (атмосферная перспектива) -->
  <g fill="url(#farMountainsGradient)" opacity="0.7">
    <!-- Основной горный хребет -->
    <path d="M0,600 L200,450 L400,520 L600,380 L800,480 L1000,400 L1200,500 L1400,350 L1600,460 L1800,380 L2000,490 L2200,400 L2400,510 L2600,420 L2800,480 L3000,400 L3200,520 L3400,430 L3600,490 L3800,410 L4000,500 L4200,420 L4400,480 L4600,400 L4800,510 L5000,430 L5200,490 L5400,410 L5600,500 L5800,420 L6000,480 L6200,400 L6400,510 L6600,430 L6800,490 L7000,410 L7200,500 L7400,420 L7600,480 L7800,400 L8000,510 L8200,430 L8400,490 L8600,410 L8800,500 L9000,420 L9200,480 L9400,400 L9600,510 L9800,430 L10000,490 L10200,410 L10400,500 L10600,420 L10800,480 L11000,400 L11200,510 L11400,430 L11600,490 L11800,410 L12000,500 L12200,420 L12400,480 L12600,400 L12800,510 L13000,430 L13200,490 L13400,410 L13600,500 L13800,420 L14000,480 L14200,400 L14400,510 L14600,430 L14800,490 L15000,410 L15200,500 L15400,420 L15600,480 L15800,400 L16000,510 L16200,430 L16400,490 L16600,410 L16800,500 L17000,420 L17200,480 L17400,400 L17600,510 L17800,430 L18000,490 L18200,410 L18400,500 L18600,420 L18800,480 L19000,400 L19200,510 L19400,430 L19600,490 L19800,410 L20000,500 L20200,420 L20400,480 L20600,400 L20800,510 L21000,430 L21200,490 L21400,410 L21600,500 L21800,420 L22000,480 L22200,400 L22400,510 L22600,430 L22800,490 L23000,410 L23200,500 L23400,420 L23600,480 L23800,400 L24000,510 L24200,430 L24400,490 L24600,410 L24800,500 L25000,420 L25200,480 L25400,400 L25600,510 L25800,430 L26000,490 L26200,410 L26400,500 L26600,420 L26800,480 L27000,400 L27200,510 L27400,430 L27600,490 L27800,410 L28000,500 L28200,420 L28400,480 L28600,400 L28800,510 L29000,430 L29200,490 L29400,410 L29600,500 L29800,420 L30000,480 L30200,400 L30400,510 L30600,430 L30800,490 L31000,410 L31200,500 L31400,420 L31600,480 L31800,400 L32000,510 L32200,430 L32400,490 L32600,410 L32768,450 L32768,1024 L0,1024 Z" />
    
    <!-- Дополнительные пики на заднем плане -->
    <path d="M0,550 L300,420 L600,480 L900,400 L1200,460 L1500,380 L1800,450 L2100,390 L2400,470 L2700,410 L3000,460 L3300,400 L3600,480 L3900,420 L4200,470 L4500,410 L4800,460 L5100,400 L5400,480 L5700,420 L6000,470 L6300,410 L6600,460 L6900,400 L7200,480 L7500,420 L7800,470 L8100,410 L8400,460 L8700,400 L9000,480 L9300,420 L9600,470 L9900,410 L10200,460 L10500,400 L10800,480 L11100,420 L11400,470 L11700,410 L12000,460 L12300,400 L12600,480 L12900,420 L13200,470 L13500,410 L13800,460 L14100,400 L14400,480 L14700,420 L15000,470 L15300,410 L15600,460 L15900,400 L16200,480 L16500,420 L16800,470 L17100,410 L17400,460 L17700,400 L18000,480 L18300,420 L18600,470 L18900,410 L19200,460 L19500,400 L19800,480 L20100,420 L20400,470 L20700,410 L21000,460 L21300,400 L21600,480 L21900,420 L22200,470 L22500,410 L22800,460 L23100,400 L23400,480 L23700,420 L24000,470 L24300,410 L24600,460 L24900,400 L25200,480 L25500,420 L25800,470 L26100,410 L26400,460 L26700,400 L27000,480 L27300,420 L27600,470 L27900,410 L28200,460 L28500,400 L28800,480 L29100,420 L29400,470 L29700,410 L30000,460 L30300,400 L30600,480 L30900,420 L31200,470 L31500,410 L31800,460 L32100,400 L32400,480 L32700,430 L32768,460 L32768,1024 L0,1024 Z" opacity="0.5" />
  </g>
</svg>
