<svg xmlns="http://www.w3.org/2000/svg" width="32768" height="1024" viewBox="0 0 32768 1024">
  <defs>
    <filter id="cloudBlur">
      <feGaussianBlur stdDeviation="15" />
    </filter>
  </defs>
  
  <!-- Облака генерируются процедурно с помощью эллипсов разной прозрачности -->
  <g fill="#ffffff" opacity="0.6" filter="url(#cloudBlur)">
    <!-- Повторяющийся паттерн облаков каждые ~4000 пикселей -->
    <!-- Секция 1 -->
    <ellipse cx="500" cy="200" rx="400" ry="120" />
    <ellipse cx="900" cy="180" rx="350" ry="100" />
    <ellipse cx="1300" cy="220" rx="450" ry="130" />
    <ellipse cx="2000" cy="150" rx="500" ry="140" />
    <ellipse cx="2600" cy="190" rx="380" ry="110" />
    <ellipse cx="3200" cy="170" rx="420" ry="125" />
    <ellipse cx="3800" cy="210" rx="360" ry="95" />
    
    <!-- Секция 2 -->
    <ellipse cx="4500" cy="250" rx="480" ry="135" />
    <ellipse cx="5100" cy="200" rx="390" ry="115" />
    <ellipse cx="5700" cy="180" rx="440" ry="128" />
    <ellipse cx="6400" cy="230" rx="510" ry="145" />
    <ellipse cx="7000" cy="190" rx="370" ry="105" />
    <ellipse cx="7600" cy="160" rx="430" ry="122" />
    <ellipse cx="8200" cy="220" rx="355" ry="98" />
    
    <!-- Секция 3 -->
    <ellipse cx="9000" cy="180" rx="460" ry="132" />
    <ellipse cx="9600" cy="210" rx="385" ry="108" />
    <ellipse cx="10200" cy="170" rx="425" ry="126" />
    <ellipse cx="10900" cy="240" rx="495" ry="142" />
    <ellipse cx="11500" cy="200" rx="365" ry="102" />
    <ellipse cx="12100" cy="175" rx="415" ry="118" />
    <ellipse cx="12700" cy="215" rx="375" ry="112" />
    
    <!-- Секция 4 -->
    <ellipse cx="13500" cy="190" rx="470" ry="138" />
    <ellipse cx="14100" cy="220" rx="395" ry="116" />
    <ellipse cx="14700" cy="165" rx="435" ry="130" />
    <ellipse cx="15400" cy="235" rx="505" ry="148" />
    <ellipse cx="16000" cy="185" rx="375" ry="106" />
    <ellipse cx="16600" cy="170" rx="425" ry="124" />
    <ellipse cx="17200" cy="205" rx="365" ry="100" />
    
    <!-- Секция 5 -->
    <ellipse cx="18000" cy="175" rx="455" ry="134" />
    <ellipse cx="18600" cy="215" rx="380" ry="110" />
    <ellipse cx="19200" cy="180" rx="420" ry="128" />
    <ellipse cx="19900" cy="245" rx="490" ry="140" />
    <ellipse cx="20500" cy="195" rx="360" ry="104" />
    <ellipse cx="21100" cy="165" rx="410" ry="120" />
    <ellipse cx="21700" cy="210" rx="370" ry="114" />
    
    <!-- Секция 6 -->
    <ellipse cx="22500" cy="185" rx="465" ry="136" />
    <ellipse cx="23100" cy="225" rx="390" ry="112" />
    <ellipse cx="23700" cy="170" rx="430" ry="132" />
    <ellipse cx="24400" cy="240" rx="500" ry="146" />
    <ellipse cx="25000" cy="190" rx="370" ry="108" />
    <ellipse cx="25600" cy="175" rx="420" ry="126" />
    <ellipse cx="26200" cy="200" rx="360" ry="102" />
    
    <!-- Секция 7 -->
    <ellipse cx="27000" cy="180" rx="450" ry="130" />
    <ellipse cx="27600" cy="220" rx="385" ry="114" />
    <ellipse cx="28200" cy="175" rx="425" ry="128" />
    <ellipse cx="28900" cy="235" rx="495" ry="144" />
    <ellipse cx="29500" cy="185" rx="365" ry="106" />
    <ellipse cx="30100" cy="170" rx="415" ry="122" />
    <ellipse cx="30700" cy="205" rx="375" ry="116" />
    
    <!-- Секция 8 (завершающая, перекрывается с первой для бесшовности) -->
    <ellipse cx="31500" cy="195" rx="475" ry="140" />
    <ellipse cx="32100" cy="215" rx="400" ry="118" />
    <ellipse cx="32700" cy="180" rx="440" ry="134" />
  </g>
  
  <!-- Дополнительные лёгкие облака на заднем плане -->
  <g fill="#e8e8f0" opacity="0.3" filter="url(#cloudBlur)">
    <ellipse cx="700" cy="350" rx="300" ry="80" />
    <ellipse cx="1800" cy="380" rx="350" ry="90" />
    <ellipse cx="3100" cy="340" rx="280" ry="75" />
    <ellipse cx="4400" cy="370" rx="320" ry="85" />
    <ellipse cx="5700" cy="350" rx="290" ry="78" />
    <ellipse cx="7000" cy="380" rx="340" ry="88" />
    <ellipse cx="8300" cy="345" rx="275" ry="72" />
    <ellipse cx="9600" cy="375" rx="315" ry="82" />
    <ellipse cx="10900" cy="355" rx="285" ry="76" />
    <ellipse cx="12200" cy="385" rx="335" ry="86" />
    <ellipse cx="13500" cy="340" rx="270" ry="70" />
    <ellipse cx="14800" cy="370" rx="310" ry="80" />
    <ellipse cx="16100" cy="350" rx="280" ry="74" />
    <ellipse cx="17400" cy="380" rx="330" ry="84" />
    <ellipse cx="18700" cy="345" rx="265" ry="68" />
    <ellipse cx="20000" cy="375" rx="305" ry="78" />
    <ellipse cx="21300" cy="355" rx="275" ry="72" />
    <ellipse cx="22600" cy="385" rx="325" ry="82" />
    <ellipse cx="23900" cy="340" rx="260" ry="66" />
    <ellipse cx="25200" cy="370" rx="300" ry="76" />
    <ellipse cx="26500" cy="350" rx="270" ry="70" />
    <ellipse cx="27800" cy="380" rx="320" ry="80" />
    <ellipse cx="29100" cy="345" rx="255" ry="64" />
    <ellipse cx="30400" cy="375" rx="295" ry="74" />
    <ellipse cx="31700" cy="355" rx="265" ry="68" />
  </g>
</svg>
