<?xml version="1.0" encoding="utf-8"?>
<svg xmlns="http://www.w3.org/2000/svg" viewBox="0 0 500 500" xmlns:bx="https://boxy-svg.com">
  <defs>
    <bx:grid x="0" y="0" width="20" height="20"/>
    <bx:export>
      <bx:file format="png" width="32" height="32" path="dirt.png"/>
    </bx:export>
  </defs>
  <rect x="-40" y="-20" width="600" height="580" style="stroke: rgb(0, 0, 0); fill: rgb(130, 95, 71);"/>
  <ellipse style="fill: rgba(0, 0, 0, 0.243);" cx="120" cy="240" rx="20" ry="20"/>
  <path d="M 460 190 C 460 228.66 428.66 260 390 260 C 381.852 260 374.03 258.608 366.757 256.049 C 374.915 248.016 380 236.671 380 224.096 C 380 199.742 360.926 180 337.396 180 C 331.308 180 325.518 181.322 320.279 183.703 C 323.463 147.993 353.462 120 390 120 C 428.66 120 460 151.34 460 190 Z" style="fill: rgba(0, 0, 0, 0.243);"/>
  <path d="M 240 460 C 217.909 460 200 442.091 200 420 C 200 397.909 217.909 380 240 380 C 241.749 380 243.473 380.112 245.163 380.33 C 241.876 386.138 240 392.85 240 400 C 240 420.342 255.185 437.137 274.838 439.67 C 267.97 451.808 254.942 460 240 460 Z" style="fill: rgba(0, 0, 0, 0.243);"/>
  <ellipse style="fill: rgba(0, 0, 0, 0.243); stroke-width: 1;" cx="170" cy="110" rx="10" ry="10"/>
</svg>