<?xml version="1.0" encoding="utf-8"?>
<svg xmlns="http://www.w3.org/2000/svg" viewBox="0 0 500 500" xmlns:bx="https://boxy-svg.com">
  <defs>
    <bx:grid x="0" y="0" width="20" height="20"/>
    <bx:export>
      <bx:file format="png" width="32" height="32" path="bomb.png"/>
    </bx:export>
  </defs>
  <path style="fill: none; stroke-width: 12; paint-order: fill; stroke-dashoffset: 22px; stroke-miterlimit: 6.91; stroke: rgb(143, 99, 51);" d="M 240 121.894 C 240 98.021 290.32 46.88 330.403 39.836 C 366.047 33.572 430.142 44.841 430.859 81.024 C 431.652 121.024 399.745 141.024 369.206 139.96 C 359.42 139.619 349.714 132.71 342.861 124.765 C 335.028 115.685 330.924 96.513 327.518 85.165"/>
  <path style="fill: none; stroke-width: 12px; paint-order: fill; stroke: rgb(171, 112, 48); stroke-dashoffset: 22px; stroke-miterlimit: 6.26; stroke-dasharray: 8, 3;" d="M 240.255 120.87 C 240.255 96.997 290.575 45.856 330.658 38.812 C 366.302 32.548 430.397 43.817 431.114 80 C 431.907 120 400 140 369.461 138.936 C 359.675 138.595 349.969 131.686 343.116 123.741 C 335.283 114.661 331.179 95.489 327.773 84.141"/>
  <path d="M 368.66 250 C 368.66 321.797 310.457 380 238.66 380 C 166.863 380 108.66 321.797 108.66 250 C 108.66 184.539 157.043 130.379 220 121.329 L 220 100 L 260 100 L 260 121.743 C 321.644 131.923 368.66 185.471 368.66 250 Z" style="stroke: rgb(0, 0, 0);"/>
  <path d="M 125 248.609 C 125 186.969 176.124 137 239.188 137 C 287.038 137 328.014 165.767 345 206.57 C 325.034 174.096 288.64 152.368 247.054 152.368 C 183.99 152.368 132.866 202.338 132.866 263.977 C 132.866 278.849 135.842 293.04 141.242 306.015 C 130.931 289.242 125 269.603 125 248.609 Z" style="fill: rgb(216, 216, 216); stroke: rgb(0, 0, 0); stroke-width: 1;"/>
  <path d="M 333.17 67.435 L 345.06 85.947 L 366.34 91.534 L 352.409 108.563 L 353.67 130.528 L 333.17 122.541 L 312.67 130.528 L 313.931 108.563 L 300 91.534 L 321.28 85.947 Z" bx:shape="star 333.17 102.312 34.877 34.877 0.58 5 1@9013baf7" style="fill: rgb(255, 228, 0); stroke: rgb(255, 0, 0); transform-box: fill-box; transform-origin: 50% 50%;" transform="matrix(0.958112, -0.286396, 0.286396, 0.958112, 0.00009, -0.000005)"/>
</svg>