<?xml version="1.0" encoding="utf-8"?>
<svg xmlns="http://www.w3.org/2000/svg" viewBox="0 0 500 500" xmlns:bx="https://boxy-svg.com">
  <defs>
    <bx:grid x="0" y="0" width="20" height="20"/>
    <bx:export>
      <bx:file format="png" width="64" height="64" path="heart.png"/>
    </bx:export>
  </defs>
  <path d="M 260 380 C 215.817 380 146.81 330.751 105.868 270 C 88.077 243.6 78.512 219.371 77.011 200.413 C 76.345 197.015 76 193.538 76 189.999 C 76 151.339 117.191 119.999 168.001 119.999 C 218.811 119.999 260 151.339 260 189.999 C 260 193.394 259.683 196.733 259.068 200 C 259.213 200 259.855 200 260 200 C 260.475 200 260.454 200.001 260.928 200.005 C 260.317 196.737 260.001 193.396 260 189.999 C 260 151.339 300.944 119.999 351.45 119.999 C 401.956 119.999 442.898 151.339 442.898 189.999 C 442.898 190.235 442.897 190.47 442.894 190.705 C 444.575 210.719 435.085 238.847 414.144 269.999 L 414.143 270 C 373.305 330.751 304.382 380 260.199 380 C 260.167 380 260.135 380 260.103 380 C 260.069 380 260.035 380 260 380 Z" style="stroke: rgb(0, 0, 0); fill: rgb(255, 59, 34); stroke-width: 2px;"/>
  <path d="M 430.308 192 C 430.308 195.407 429.952 198.748 429.269 202 C 423.306 173.623 392.393 152 355.154 152 C 317.916 152 287.002 173.623 281.039 202 C 280.356 198.748 280 195.407 280 192 C 280 158.863 313.648 132 355.154 132 C 396.66 132 430.308 158.863 430.308 192 Z" style="fill: rgba(255, 255, 255, 0.718);"/>
  <path d="M 240 192 C 240 195.407 239.644 198.748 238.961 202 C 232.998 173.623 202.085 152 164.846 152 C 127.608 152 96.694 173.623 90.731 202 C 90.048 198.748 89.692 195.407 89.692 192 C 89.692 158.863 123.34 132 164.846 132 C 206.352 132 240 158.863 240 192 Z" style="stroke-width: 1; fill: rgba(255, 255, 255, 0.718);"/>
</svg>