<?xml version="1.0" encoding="utf-8"?>
<svg xmlns="http://www.w3.org/2000/svg" viewBox="0 0 500 500" xmlns:bx="https://boxy-svg.com">
  <defs>
    <bx:grid x="0" y="0" width="20" height="20"/>
    <bx:export>
      <bx:file format="png" width="32" height="32" path="wood.png"/>
    </bx:export>
  </defs>
  <path d="M 125.22 264.454 C 120.518 261.218 118.442 259.326 115.186 254.993 C 111.028 249.461 105.116 239.678 103.144 232.631 C 101.457 226.599 101.068 221.479 102.571 215.429 C 103.084 213.363 103.882 211.102 104.889 208.784 C 107.502 201.092 111.523 191.795 113.022 189.93 C 113.273 189.618 113.479 189.442 113.67 189.348 C 114.484 187.786 116.142 186.339 117.135 185.454 C 118.065 184.626 119.122 184.585 119.834 183.954 C 120.496 183.368 120.759 182.415 121.333 181.856 C 121.868 181.334 122.004 181.338 123.132 180.656 C 123.819 180.241 125.039 179.463 126.542 178.515 C 126.872 178.032 127.257 177.562 127.716 177.115 C 131.752 173.188 140.701 166.628 147.427 165.67 C 153.855 164.755 161.98 168.65 167.138 170.757 C 171.188 172.411 172.294 174.988 176.675 176.479 C 182.802 178.565 195.394 177.683 202.109 180.294 C 207.658 182.453 212.337 186.05 215.143 189.514 C 215.399 189.83 215.644 190.17 215.876 190.526 C 221.429 192.386 227.627 194.575 233.853 196.874 C 241.32 195.639 252.829 194.557 260.169 194.053 C 260.369 193.866 260.588 193.675 260.83 193.481 C 264.009 190.931 274.838 185 279.179 184.307 C 281.866 183.878 284.6 184.529 285.199 185.74 C 285.812 186.979 284.785 189.82 282.619 191.761 C 281.465 192.795 279.165 194.098 276.46 195.395 C 276.484 195.469 276.506 195.544 276.524 195.621 C 289.317 195.878 303.231 196.426 308.37 195.925 C 312.703 195.503 313.507 194.107 315.825 194.204 C 317.975 194.295 321.296 194.944 321.845 196.211 C 322.122 196.848 321.857 197.948 321.318 199.031 C 323.419 199.335 324.999 199.732 325.821 200.249 C 326.724 200.817 326.991 201.62 326.986 202.447 C 330.143 202.347 334.451 202.472 337.471 203.3 C 342.221 204.602 350.009 208.02 351.269 210.639 C 352.125 212.419 350.315 215.25 349.214 216.217 C 348.317 217.006 347.319 217.103 345.691 216.804 C 342.908 216.293 337.638 212.254 333.361 210.933 C 329.865 209.853 324.036 210.366 321.37 209.583 C 320.617 209.888 319.701 210.167 318.509 210.422 C 312.553 211.698 298.698 211.993 287.353 212.33 C 285.053 212.398 282.485 212.472 279.772 212.542 C 282.634 214.126 284.813 216.566 289.254 218.493 C 297.473 222.061 314.601 225.743 324.684 229.727 C 333.185 233.086 344.705 237.104 346.504 240.313 C 346.574 240.437 346.629 240.564 346.671 240.692 C 358.345 243.142 354.924 243.894 383.625 254.972 C 384.869 260 384.185 278.787 384.528 281.581 C 384.589 282.077 384.556 282.478 384.453 282.819 C 385.618 285.228 386.574 287.599 387.096 289.595 C 388.327 294.311 387.809 298.072 387.096 302.783 C 386.289 308.114 384.644 314.51 381.935 319.985 C 379.1 325.716 375.246 332.18 370.181 336.327 C 365.05 340.528 357.566 343.539 351.259 344.928 C 347.48 345.76 343.199 345.991 339.377 345.755 C 338.865 345.735 338.302 345.691 337.67 345.616 C 336.147 345.46 334.728 345.228 333.483 344.928 C 333.114 344.839 332.754 344.743 332.402 344.639 C 311.728 339.795 228.931 308.76 180.412 289.637 C 182.795 292.969 184.843 295.853 185.847 296.749 C 186.766 297.569 186.724 296.899 187.538 297.595 C 188.244 298.198 189.398 299.591 190.7 301.221 C 192.652 302.941 194.335 304.501 195.02 305.103 C 195.608 305.621 195.178 305.473 195.865 305.949 C 196.559 306.429 198.556 307.321 201.009 308.42 C 202.979 308.779 204.983 309.252 206.681 309.839 C 212.073 311.702 221.174 316.287 223.31 318.858 C 224.422 320.198 224.181 321.409 223.873 322.522 C 223.555 323.67 222.419 325.012 221.337 325.622 C 220.257 326.232 219.195 326.645 217.391 326.186 C 215.987 325.829 214.005 324.554 211.819 323.058 C 213.055 324.601 214.645 327.538 216.567 329.443 C 219.084 331.936 225.051 333.97 225.868 336.489 C 226.533 338.537 224.852 341.915 223.332 342.971 C 221.88 343.978 218.743 343.518 217.131 342.971 C 215.777 342.511 215.189 341.604 214.031 340.434 C 212.472 338.86 211.564 336.882 208.676 333.952 C 203.652 328.856 190.246 318.314 183.592 311.687 C 178.273 306.388 176.374 302.092 170.909 297.313 C 170.179 296.674 169.325 296.02 168.381 295.355 C 173.91 304.815 179.339 315.007 179.558 318.028 C 179.713 320.165 178.205 320.771 177.022 321.128 C 175.675 321.535 173.968 321.753 171.667 319.719 C 167.271 315.833 155.341 293.985 149.53 283.786 C 147.651 282.443 146.293 281.202 145.826 280.121 C 145.517 279.407 145.46 278.625 145.581 277.868 C 144.769 277.162 143.026 275.793 142.356 275.188 C 141.929 274.804 142.048 274.838 141.51 274.343 C 141.079 273.947 140.204 273.261 139.157 272.434 C 132.991 269.494 129.373 267.311 125.22 264.453 L 125.22 264.454 Z" style="stroke: rgb(0, 0, 0); fill: rgb(141, 73, 73);"/>
  <path d="M 363.444 251.274 C 365.193 250.805 371.734 252.207 373.012 253.578 C 374.151 254.803 382.421 253.871 384.571 255.367 C 386.836 256.947 386.127 263.61 388.091 266.012 C 389.824 268.132 393.661 266.965 395.134 269.697 C 397.321 273.753 396.021 286.164 395.916 291.805 C 395.841 295.818 394.309 299.595 395.134 301.22 C 395.687 302.312 397.536 301.152 398.263 302.449 C 399.613 304.854 400.966 314.336 399.046 318.824 C 397.104 323.366 389.687 325.843 386.527 329.47 C 383.84 332.552 383.194 336.035 380.657 338.885 C 377.935 341.946 373.644 345.677 370.485 347.074 C 367.994 348.174 365.072 348.247 363.444 347.892 C 362.316 347.647 362.385 346.439 361.096 346.255 C 358.795 345.925 352.14 349.326 349.358 348.711 C 347.312 348.259 345.716 345.943 345.054 345.027 C 344.692 344.523 345.144 343.954 344.663 343.798 C 343.641 343.467 338.668 347.122 336.838 346.255 C 335.052 345.408 334.544 340.239 333.709 338.885 C 333.256 338.153 333.268 338.242 332.535 337.657 C 330.968 336.409 325.234 334.529 323.146 331.517 C 320.952 328.351 319.856 322.104 320.015 318.824 C 320.134 316.389 321.969 315.731 322.363 313.093 C 322.943 309.211 320.652 302.531 321.58 296.716 C 322.639 290.083 326.203 281.566 329.406 275.428 C 332.308 269.864 336.73 263.742 339.578 261.1 C 341.354 259.449 343.295 259.457 344.273 258.643 C 344.93 258.094 344.684 257.701 345.446 257.005 C 346.923 255.658 350.998 252.213 354.053 251.274 C 357.009 250.364 361.108 251.899 363.444 251.274 Z" style="fill: rgb(188, 122, 100); stroke: rgba(0, 0, 0, 0.435);"/>
  <path style="paint-order: stroke; fill: rgba(255, 255, 255, 0.227);" d="M 332.054 290.112 C 331.219 291.936 342.18 305.662 350.435 313.295 C 362.025 324.011 362.785 337.485 367.814 340 C 367.814 340 364.706 318.348 360 310.178 C 354.854 301.245 332.054 290.112 332.054 290.112 Z"/>
  <polyline style="fill: none; stroke-width: 7px; stroke: rgba(0, 0, 0, 0.318);" points="270.586 208.39 300 208.386 320 208.175 340 212.192"/>
  <line style="fill: none; stroke-width: 7px; stroke: rgba(0, 0, 0, 0.318);" x1="181.986" y1="286.764" x2="334.247" y2="342.562"/>
  <line style="fill: none; stroke-width: 7px; stroke: rgba(0, 0, 0, 0.318);" x1="147.573" y1="273.718" x2="172.702" y2="320"/>
  <line style="fill: none; stroke-width: 7px; stroke: rgba(0, 0, 0, 0.318);" x1="175.614" y1="299.628" x2="220" y2="340"/>
  <line style="fill: none; stroke-width: 7px; stroke: rgba(0, 0, 0, 0.318);" x1="203.839" y1="318.985" x2="220" y2="326.494"/>
  <line style="fill: none; stroke-width: 7px; stroke: rgba(0, 0, 0, 0.318);" x1="268.721" y1="200" x2="280" y2="189.851"/>
  <line style="fill: none; stroke-width: 6px; stroke: rgba(0, 0, 0, 0.28);" x1="146.453" y1="273.18" x2="120" y2="260"/>
  <line style="fill: none; stroke-width: 6px; stroke: rgba(0, 0, 0, 0.28);" x1="280" y1="240" x2="320" y2="260"/>
  <line style="fill: none; stroke-width: 6px; stroke: rgba(0, 0, 0, 0.28);" x1="148.399" y1="194.187" x2="233.218" y2="220"/>
  <line style="fill: none; stroke-width: 6px; stroke: rgba(0, 0, 0, 0.28);" x1="212.979" y1="267.647" x2="273.601" y2="291.252"/>
  <path style="paint-order: stroke; fill: rgba(255, 255, 255, 0.227); stroke-width: 1;" d="M 343.898 276.258 C 343.063 278.082 363.6 279.482 371.855 287.115 C 383.445 297.831 382.661 290.044 387.69 292.559 C 387.69 292.559 380.975 288.17 376.269 280 C 371.123 271.067 343.898 276.258 343.898 276.258 Z"/>
  <line style="fill: none; stroke-width: 6; stroke: rgba(0, 0, 0, 0.28);" x1="140" y1="240" x2="160" y2="253.139"/>
  <line style="fill: none; stroke-width: 6; stroke: rgba(0, 0, 0, 0.28);" x1="174.951" y1="221.545" x2="259.77" y2="247.358"/>
</svg>